<?xml version="1.0" encoding="UTF-8"?>
<svg version="1.1" viewBox="0 0 32 32" xmlns="http://www.w3.org/2000/svg">
<g transform="translate(0 -1020.4)" shape-rendering="auto">
<path d="m10.772 1043.6a0.50085 0.50005 0 0 0-0.10564 0.01l-4.0045 0.748a0.50085 0.50005 0 0 0-0.3932 0.6133l0.13497 0.543c0.21945 0.8757 0.21946 1.7922 0 2.6679l-0.88618 3.5391 0.97031 0.2441 0.88814-3.541c0.25937-1.0351 0.25935-2.1173 0-3.1523l-8e-3 -0.029 3.0205-0.5645 0.38538 1.541a0.50085 0.50005 0 0 0 0.0782 0.17l1.252 1.748a0.50085 0.50005 0 0 0 0.4069 0.209h6.7608c0.31772 0 0.61688-0.1545 0.80207-0.4121l0.0567-0.078c0.73-1.0197 1.2623-2.1689 1.567-3.3848l-0.0528 0.207 3.0205 0.5664-8e-3 0.027c-0.25936 1.035-0.25937 2.1172 0 3.1523l0.88815 3.541 0.97225-0.2422-0.88814-3.541c-0.21945-0.8757-0.21944-1.7922 0-2.6679l0.13694-0.543a0.50085 0.50005 0 0 0-0.39516-0.6133l-4.0044-0.748a0.50085 0.50005 0 0 0-0.57906 0.3691l-0.0626 0.25c-0.27416 1.0941-0.7516 2.1274-1.4085 3.0449l-0.0528 0.072h-6.4948l-1.0466-1.461-0.47733-1.9062a0.50085 0.50005 0 0 0-0.47342-0.3789z" color="#000000" color-rendering="auto" fill-rule="evenodd" image-rendering="auto" solid-color="#000000" style="isolation:auto;mix-blend-mode:normal;text-decoration-color:#000000;text-decoration-line:none;text-decoration-style:solid;text-indent:0;text-transform:none;white-space:normal"/>
<path d="m8.8792 1032.9a0.50002 0.50005 0 0 0-0.45506 0.3144c-0.14443 0.3472-0.20381 0.7333-0.16015 1.1211l0.0918 0.8125c0.0725 0.6456 0.35698 1.3272 0.99994 1.709l0.25975 0.1543c0.22137 0.1315 0.39617 0.3248 0.50388 0.5547l1.4784 3.1563c0.76547 1.634 2.4207 2.6777 4.2361 2.6777h0.33202c1.8154 0 3.4706-1.0437 4.2361-2.6777l1.4784-3.1563c0.10769-0.2299 0.28249-0.4232 0.50387-0.5547l0.25976-0.1543c0.64293-0.3818 0.92745-1.0634 0.99994-1.709l0.0918-0.8125c0.0435-0.387-0.0143-0.7726-0.16015-1.1211a0.50074 0.50077 0 1 0-0.92378 0.3868c0.0812 0.1939 0.11406 0.4059 0.0899 0.6211l-0.0918 0.8144c-0.0507 0.4515-0.20412 0.7748-0.51755 0.9609l-0.2578 0.1543c-0.39239 0.233-0.70709 0.5776-0.90034 0.9903l-1.4784 3.1562c-0.60012 1.2812-1.8974 2.1016-3.3299 2.1016h-0.33202c-1.4324 0-2.7298-0.8205-3.3299-2.1016l-1.4784-3.1562c-0.19326-0.4127-0.50797-0.7573-0.90034-0.9903l-0.2578-0.1543c-0.31345-0.1861-0.46686-0.5094-0.51755-0.9609l-0.0918-0.8144c-0.0241-0.2144 9e-3 -0.4278 0.0898-0.6231a0.50002 0.50005 0 0 0-0.46871-0.6992z" color="#000000" color-rendering="auto" fill-rule="evenodd" image-rendering="auto" solid-color="#000000" style="isolation:auto;mix-blend-mode:normal;text-decoration-color:#000000;text-decoration-line:none;text-decoration-style:solid;text-indent:0;text-transform:none;white-space:normal"/>
<path d="m15.996 1023.8a0.50005 0.50005 0 0 0-0.47851 0.3086l-0.4336 1.043-1.1445 0.1406a0.50005 0.50005 0 0 0-0.26562 0.875l0.85547 0.7363-0.22071 1.1348a0.50005 0.50005 0 0 0 0.75196 0.5215l0.96093-0.5879 1.0078 0.5605a0.50005 0.50005 0 0 0 0.73046-0.5508l-0.26171-1.1015 0.84375-0.7871a0.50005 0.50005 0 0 0-0.30079-0.8633l-1.123-0.092-0.48633-1.0488a0.50005 0.50005 0 0 0-0.43555-0.2891zm8e-3 1.7402 0.13085 0.2832a0.50005 0.50005 0 0 0 0.41211 0.2872l0.28516 0.023-0.22852 0.2129a0.50005 0.50005 0 0 0-0.14648 0.4824l0.0664 0.2773-0.26953-0.1503a0.50005 0.50005 0 0 0-0.50391 0.01l-0.24219 0.1485 0.0586-0.3047a0.50005 0.50005 0 0 0-0.16407-0.4766l-0.21679-0.1875 0.30859-0.037a0.50005 0.50005 0 0 0 0.40039-0.3047z" color="#000000" color-rendering="auto" image-rendering="auto" solid-color="#000000" style="isolation:auto;mix-blend-mode:normal;text-decoration-color:#000000;text-decoration-line:none;text-decoration-style:solid;text-indent:0;text-transform:none;white-space:normal"/>
<path d="m16 1020.4c-4.1362 0-7.5 3.3638-7.5 7.5-1e-5 1.2222 0 3 0 3h1s-1e-5 -1.7778 0-3c0-3.5958 2.9042-6.5 6.5-6.5s6.5 2.9042 6.5 6.5v3h1v-3c0-4.1362-3.3638-7.5-7.5-7.5z" color="#000000" color-rendering="auto" fill-rule="evenodd" image-rendering="auto" solid-color="#000000" style="isolation:auto;mix-blend-mode:normal;text-decoration-color:#000000;text-decoration-line:none;text-decoration-style:solid;text-indent:0;text-transform:none;white-space:normal"/>
<path d="m8.3532 1030.4c-0.28299 0-0.51922 0.1632-0.65429 0.3496-0.13508 0.1864-0.19922 0.4064-0.19922 0.6387v1.0254c0 0.2322 0.0641 0.4522 0.19922 0.6386 0.13507 0.1864 0.3713 0.3477 0.65429 0.3477h15.293c0.283 0 0.52118-0.1613 0.65625-0.3477 0.13508-0.1864 0.19727-0.4064 0.19727-0.6386v-1.0254c0-0.2323-0.0622-0.4523-0.19727-0.6387s-0.37325-0.3496-0.65625-0.3496zm0.14649 1h15v1h-15z" color="#000000" color-rendering="auto" image-rendering="auto" solid-color="#000000" style="isolation:auto;mix-blend-mode:normal;text-decoration-color:#000000;text-decoration-line:none;text-decoration-style:solid;text-indent:0;text-transform:none;white-space:normal"/>
<path d="m9.9919 1049.6-1.3984 1.959 0.8125 0.582 1.1016-1.541h10.984l1.1016 1.541 0.8125-0.582-1.3984-1.959z" color="#000000" color-rendering="auto" fill-rule="evenodd" image-rendering="auto" solid-color="#000000" style="isolation:auto;mix-blend-mode:normal;text-decoration-color:#000000;text-decoration-line:none;text-decoration-style:solid;text-indent:0;text-transform:none;white-space:normal"/>
<path d="m20.244 1040.6-0.99414 0.1172 0.29297 2.5078c0.0624 0.5345 0.28621 1.0208 0.62304 1.3984 0.16848 0.1888 0.36557 0.3497 0.58594 0.4766l0.49805-0.8672c-0.12499-0.072-0.23851-0.164-0.33789-0.2754-0.19891-0.223-0.33625-0.5179-0.375-0.8496z" color="#000000" color-rendering="auto" fill-rule="evenodd" image-rendering="auto" solid-color="#000000" style="isolation:auto;mix-blend-mode:normal;text-decoration-color:#000000;text-decoration-line:none;text-decoration-style:solid;text-indent:0;text-transform:none;white-space:normal"/>
<path d="m6.8475 1044.9c-0.36179 0.064-0.72196 0.1265-1.084 0.1858-8.8e-4 1e-4 -1e-3 0-2e-3 0-1.3116 0.19-2.4045 1.1116-2.8223 2.3767l-1.4141 4.2801a0.50006 0.50084 0 0 0 0.47463 0.6574h28.001a0.50006 0.50084 0 0 0 0.47462-0.6574l-1.4024-4.2448c-0.4251-1.2872-1.5471-2.2179-2.8848-2.3867h0.0215l-1.1016-0.1917-0.17187 0.986 1.1035 0.1936a0.50006 0.50084 0 0 0 0.0234 0c0.95506 0.1205 1.755 0.7805 2.0606 1.7058l1.1856 3.5877h-26.618l1.1973-3.6229c0.30055-0.91 1.0805-1.5649 2.0176-1.7a0.50006 0.50084 0 0 0 0.01 0c0.36947-0.06 0.73831-0.1238 1.1075-0.1898z" color="#000000" color-rendering="auto" fill-rule="evenodd" image-rendering="auto" solid-color="#000000" style="isolation:auto;mix-blend-mode:normal;text-decoration-color:#000000;text-decoration-line:none;text-decoration-style:solid;text-indent:0;text-transform:none;white-space:normal"/>
<path d="m11.634 1043.4-0.26757 0.9629 4.6328 1.2871 4.6348-1.2871-0.26757-0.9629-4.3672 1.2129z" color="#000000" color-rendering="auto" fill-rule="evenodd" image-rendering="auto" solid-color="#000000" style="isolation:auto;mix-blend-mode:normal;text-decoration-color:#000000;text-decoration-line:none;text-decoration-style:solid;text-indent:0;text-transform:none;white-space:normal"/>
<path d="m15.5 1044.9v3h1v-3z" color="#000000" color-rendering="auto" fill-rule="evenodd" image-rendering="auto" solid-color="#000000" style="isolation:auto;mix-blend-mode:normal;text-decoration-color:#000000;text-decoration-line:none;text-decoration-style:solid;text-indent:0;text-transform:none;white-space:normal"/>
<path d="m11.757 1040.5-0.29269 2.5078c-0.0387 0.3317-0.17591 0.6266-0.37463 0.8496-0.0993 0.1114-0.21464 0.2035-0.33951 0.2754l0.49951 0.8672c0.22016-0.1269 0.41706-0.2878 0.58537-0.4766 0.3365-0.3776 0.5581-0.8639 0.62049-1.3984l0.29463-2.5078z" color="#000000" color-rendering="auto" fill-rule="evenodd" image-rendering="auto" solid-color="#000000" style="isolation:auto;mix-blend-mode:normal;text-decoration-color:#000000;text-decoration-line:none;text-decoration-style:solid;text-indent:0;text-transform:none;white-space:normal"/>
</g>
</svg>
